<svg width="17" height="20" viewBox="0 0 17 20" fill="none" xmlns="http://www.w3.org/2000/svg">
<path d="M13.3571 4.85714C13.3571 2.17892 11.1782 0 8.5 0C5.82174 0 3.64286 2.17892 3.64286 4.85714H0V16.3929C0 18.0694 1.35913 19.4286 3.03571 19.4286H13.9643C15.6409 19.4286 17 18.0694 17 16.3929V4.85714H13.3571ZM8.5 1.21429C10.5087 1.21429 12.1429 2.84845 12.1429 4.85714H4.85714C4.85714 2.84845 6.49131 1.21429 8.5 1.21429ZM15.7857 16.3929C15.7857 17.3972 14.9686 18.2143 13.9643 18.2143H3.03571C2.03139 18.2143 1.21429 17.3972 1.21429 16.3929V6.07143H3.64286V7.89286C3.64286 8.22819 3.91471 8.5 4.25 8.5C4.58529 8.5 4.85714 8.22819 4.85714 7.89286V6.07143H12.1429V7.89286C12.1429 8.22819 12.4147 8.5 12.75 8.5C13.0853 8.5 13.3571 8.22819 13.3571 7.89286V6.07143H15.7857V16.3929Z" fill="#111111"/>
</svg>
